Coordinates
version=1
nRows=60
nColumns=12
inDegrees=yes

Units are S.I. units (second, meters, Newtons, ...)
Angles are in degrees

endheader
time	SC_y	SC_z	SC_x	AC_y	AC_z	AC_x	GH_y	GH_z	GH_yy	EL_x	PS_y
       0.0              -42.63          30.61           11.4           48.4          3.607          15.31         -108.4        -0.9103         -133.7          124.0          89.56
   0.02693              -42.62          30.61           11.4           48.4          3.605          15.31         -108.3        -0.9073         -133.6          124.0          89.56
   0.05385              -42.62          30.61           11.4           48.4          3.602          15.31         -108.3        -0.9042         -133.6          124.0          89.55
   0.08078              -42.62          30.61           11.4           48.4            3.6          15.31         -108.2        -0.9009         -133.5          124.0          89.55
    0.1077              -42.62          30.61           11.4           48.4          3.597           15.3         -108.2        -0.8973         -133.5          124.0          89.54
    0.1346              -42.62          30.61           11.4           48.4          3.594           15.3         -108.1        -0.8936         -133.4          124.0          89.54
    0.1616              -42.61          30.61           11.4           48.4          3.591           15.3         -108.1        -0.8895         -133.4          123.9          89.53
    0.1885              -42.61          30.61           11.4           48.4          3.587           15.3         -108.0        -0.8852         -133.3          123.9          89.52
    0.2154              -42.61          30.61           11.4           48.4          3.584          15.29         -107.9        -0.8806         -133.2          123.9          89.51
    0.2423              -42.61          30.61           11.4           48.4           3.58          15.29         -107.9        -0.8756         -133.2          123.9           89.5
    0.2693               -42.6          30.61           11.4           48.4          3.576          15.29         -107.8        -0.8703         -133.1          123.9          89.49
    0.2962               -42.6          30.62           11.4           48.4          3.571          15.28         -107.7        -0.8646         -133.0          123.8          89.48
    0.3231               -42.6          30.62           11.4           48.4          3.566          15.28         -107.6        -0.8584         -132.9          123.8          89.47
      0.35              -42.59          30.62           11.4           48.4          3.561          15.28         -107.6        -0.8518         -132.8          123.8          89.46
     0.377              -42.59          30.62           11.4           48.4          3.555          15.27         -107.5        -0.8445         -132.7          123.8          89.45
    0.4039              -42.58          30.62           11.4           48.4          3.549          15.27         -107.4        -0.8367         -132.6          123.7          89.44
    0.4308              -42.58          30.62           11.4          48.39          3.543          15.26         -107.2        -0.8282         -132.5          123.7          89.42
    0.4577              -42.57          30.63           11.4          48.39          3.535          15.25         -107.1        -0.8189         -132.3          123.6          89.41
    0.4847              -42.57          30.63           11.4          48.39          3.527          15.25         -107.0        -0.8088         -132.2          123.6          89.39
    0.5116              -42.56          30.63          11.39          48.39          3.519          15.24         -106.8        -0.7977         -132.0          123.6          89.37
    0.5385              -42.55          30.63          11.39          48.39          3.509          15.23         -106.7        -0.7856         -131.9          123.5          89.35
    0.5654              -42.55          30.64          11.39          48.39          3.499          15.22         -106.5        -0.7722         -131.7          123.4          89.32
    0.5924              -42.54          30.64          11.39          48.39          3.487          15.22         -106.3        -0.7574         -131.5          123.4           89.3
    0.6193              -42.53          30.64          11.39          48.38          3.474          15.21         -106.0         -0.741         -131.2          123.3          89.27
    0.6462              -42.52          30.65          11.39          48.38           3.46          15.19         -105.8        -0.7228         -131.0          123.2          89.24
    0.6731              -42.51          30.65          11.39          48.38          3.444          15.18         -105.5        -0.7025         -130.7          123.2           89.2
    0.7001              -42.49          30.65          11.39          48.38          3.426          15.17         -105.2        -0.6797         -130.3          123.1          89.16
     0.727              -42.48          30.66          11.39          48.37          3.406          15.15         -104.9        -0.6541         -130.0          123.0          89.12
    0.7539              -42.46          30.67          11.39          48.37          3.384          15.13         -104.5        -0.6252         -129.6          122.8          89.07
    0.7808              -42.44          30.67          11.38          48.36          3.358          15.11         -104.0        -0.5923         -129.1          122.7          89.01
    0.8078              -42.42          30.68          11.38          48.36          3.328          15.09         -103.5        -0.5548         -128.5          122.5          88.95
    0.8347               -42.4          30.69          11.38          48.35          3.295          15.06         -102.9        -0.5118         -127.9          122.4          88.87
    0.8616              -42.37           30.7          11.38          48.35          3.256          15.03         -102.2        -0.4621         -127.2          122.1          88.78
    0.8885              -42.33          30.71          11.37          48.34          3.211          14.99         -101.5        -0.4043         -126.4          121.9          88.68
    0.9155              -42.29          30.73          11.37          48.33          3.158          14.95         -100.5        -0.3368         -125.4          121.6          88.57
    0.9424              -42.25          30.74          11.36          48.32          3.095           14.9         -99.45        -0.2571         -124.3          121.3          88.43
    0.9693              -42.19          30.76          11.36          48.31          3.021          14.84         -98.16        -0.1625         -122.9          120.9          88.26
    0.9962              -42.13          30.79          11.35          48.29          2.932          14.76         -96.61       -0.04906         -121.3          120.4          88.07
     1.023              -42.05          30.81          11.34          48.28          2.825          14.68         -94.74        0.08818         -119.3          119.8          87.83
      1.05              -41.95          30.85          11.34          48.25          2.694          14.57         -92.45         0.2558         -116.9          119.1          87.53
     1.077              -41.83          30.89          11.32          48.23          2.532          14.44         -89.63         0.4628         -113.9          118.3          87.17
     1.104              -41.68          30.95          11.31           48.2          2.329          14.27         -86.11         0.7208         -110.2          117.2          86.73
     1.131               -41.5          31.01          11.29          48.15          2.075          14.07         -81.67          1.046         -105.5          115.8          86.16
     1.158              -41.26           31.1          11.27           48.1          1.751           13.8         -76.04          1.459         -99.56          114.1          85.44
     1.185              -40.95          31.21          11.24          48.03          1.337          13.47         -68.83          1.988         -91.94          111.9          84.52
     1.212              -40.56          31.35           11.2          47.94         0.8054          13.04         -59.57          2.667         -82.17          109.0          83.34
     1.239              -40.06          31.53          11.15          47.83         0.1264          12.48         -47.74          3.534         -69.69          105.4          81.83
     1.266              -39.43          31.76          11.09          47.69        -0.7274          11.79         -32.88          4.624          -54.0          100.9          79.93
     1.292              -38.66          32.03          11.01          47.52         -1.768          10.94         -14.76          5.952         -34.88          95.29          77.62
     1.319              -37.77          32.35          10.93          47.32         -2.974          9.963          6.244          7.492         -12.72          88.84          74.94
     1.346              -36.81           32.7          10.83          47.11          -4.28          8.902          28.98          9.159          11.28          81.86          72.04
     1.373              -35.85          33.05          10.74           46.9         -5.586           7.84          51.73          10.83          35.28          74.87          69.13
       1.4              -34.96          33.37          10.65           46.7         -6.792           6.86          72.73          12.37          57.45          68.43          66.45
     1.427              -34.19          33.64          10.58          46.53         -7.832          6.014          90.85          13.69          76.57          62.86          64.14
     1.454              -33.56          33.87          10.51          46.39         -8.686           5.32          105.7          14.78          92.26           58.3          62.24
     1.481              -33.06          34.05          10.47          46.28         -9.365          4.768          117.5          15.65          104.7          54.67          60.73
     1.508              -32.67          34.19          10.43          46.19         -9.896          4.336          126.8          16.33          114.5          51.82          59.55
     1.535              -32.37           34.3           10.4          46.12         -10.31          3.999          134.0          16.86          122.1          49.61          58.63
     1.562              -32.13          34.39          10.37          46.07         -10.63          3.736          139.6          17.27          128.1          47.88          57.91
     1.589              -31.94          34.46          10.36          46.03         -10.89          3.529          144.1           17.6          132.8          46.52          57.35
